<?xml version="1.0" encoding="UTF-8"?>
<svg id="Layer_2" data-name="Layer 2" xmlns="http://www.w3.org/2000/svg" viewBox="0 0 229 40.99">
  <defs>
    <style>
      .cls-1 {
        fill: #003087;
      }
    </style>
  </defs>
  <g id="layer">
    <g>
      <path class="cls-1" d="M226.94,2.25c0,.19-.19.42-.42.42h-.8v-1.03h.8c.23.23.42.42.42.61M226.75,3.09c.42,0,.61-.42.61-.8,0-.61-.42-.8-1.03-.8h-1.22v2.86h.42v-1.22h.8l.8,1.22h.42l-.8-1.26ZM228.81,2.86c0,1.45-1.03,2.44-2.44,2.44s-2.44-1.22-2.44-2.67,1.03-2.44,2.44-2.44c1.41.23,2.44,1.26,2.44,2.67M229,2.86c0-1.64-1.22-2.86-2.86-2.86s-2.86,1.22-2.86,2.86,1.22,2.86,2.86,2.86c1.83.04,2.86-1.22,2.86-2.86"/>
      <path class="cls-1" d="M59.81,37.48c3.47,0,8.21-.61,10.84-3.47h0v4.92c-3.28,1.03-7.79,1.83-11.26,1.83-10.84,0-21.53-6.34-21.53-20.08C37.86,10.46,46.07.42,59.58.42c3.09,0,7.37.8,9.85,1.83v3.89h-.19c-2.44-2.25-6.95-3.09-10.65-3.09-8.59,0-15.57,6.56-15.57,16.98.42,12.56,7.98,17.44,16.79,17.44"/>
      <polygon class="cls-1" points="200.34 36.49 200.34 20.92 216.9 20.92 216.9 17.82 200.34 17.82 200.34 4.5 218.96 4.5 218.96 1.45 195.41 1.45 195.41 39.96 220.18 39.96 220.18 36.49 200.34 36.49"/>
      <path class="cls-1" d="M105.49,1.45v24.58c0,7.18-3.47,12.1-11.68,12.1s-10.46-6.14-10.46-11.68V1.45h-5.11v25.19c0,8.59,5.95,14.35,15.57,14.35s15.15-6.76,15.15-14.96V1.45h-3.47Z"/>
      <polygon class="cls-1" points="146.67 1.26 133.74 34.01 120.45 1.26 114.92 1.26 130.87 39.96 134.58 39.96 150.34 1.26 146.67 1.26"/>
      <path class="cls-1" d="M10.23,25.19l7.6-17.82,7.6,17.82h-15.19ZM31.53,39.96h5.72L19.62,1.03h-5.88v.19c1.83,1.22,1.83,2.86.8,5.53L0,39.73h4.08l4.92-11.68h17.63l4.89,11.91Z"/>
      <path class="cls-1" d="M182.89,1.45v24.58c0,7.18-3.47,12.1-11.68,12.1s-10.46-6.14-10.46-11.68V1.45h-5.11v25.19c0,8.59,5.95,14.35,15.57,14.35s15.15-6.76,15.15-14.96V1.45h-3.47Z"/>
    </g>
  </g>
</svg>