<svg width="26" height="21" viewBox="0 0 26 21" fill="none" xmlns="http://www.w3.org/2000/svg">
<path d="M24.7744 8.97876H17.2744C16.9307 8.97876 16.6494 9.26001 16.6494 9.60376V10.8538C16.6494 11.1975 16.9307 11.4788 17.2744 11.4788H24.7744C25.1182 11.4788 25.3994 11.1975 25.3994 10.8538V9.60376C25.3994 9.26001 25.1182 8.97876 24.7744 8.97876ZM9.14941 10.8538C11.9111 10.8538 14.1494 8.61548 14.1494 5.85376C14.1494 3.09204 11.9111 0.85376 9.14941 0.85376C6.3877 0.85376 4.14941 3.09204 4.14941 5.85376C4.14941 8.61548 6.3877 10.8538 9.14941 10.8538ZM12.6494 12.1038H11.9971C11.1299 12.5022 10.165 12.7288 9.14941 12.7288C8.13379 12.7288 7.17285 12.5022 6.30176 12.1038H5.64941C2.75098 12.1038 0.399414 14.4553 0.399414 17.3538V18.9788C0.399414 20.0139 1.23926 20.8538 2.27441 20.8538H16.0244C17.0596 20.8538 17.8994 20.0139 17.8994 18.9788V17.3538C17.8994 14.4553 15.5479 12.1038 12.6494 12.1038Z" fill="white"/>
</svg>
