<?xml version="1.0" encoding="UTF-8"?>
<svg id="Layer_2" data-name="Layer 2" xmlns="http://www.w3.org/2000/svg" viewBox="0 0 202.31 45.6">
  <defs>
    <style>
      .cls-1 {
        fill: #47322e;
      }
    </style>
  </defs>
  <g id="layer">
    <g id="layer1">
      <g id="g16489">
        <path id="path15446" class="cls-1" d="M129.8,39.09v-15.11c.06-2.69-.2-7.27-.2-7.27h6.37s.03,2.35.03,4.76v.78c3.4-3.82,6.85-5.77,10.85-6.07,2.04-.05,6.1.32,8.33,2.3,1.96,1.71,2.5,3.92,2.5,7.91v12.36c0,1,.14,5.99.14,5.99h-6.22s-.1-3.31-.1-6.13v-10.49c0-4.23-.28-6.8-1.57-8.08-.81-.8-2.05-1.15-3.92-1.06-4.85.07-10.01,5.55-10.01,10.66v9.11c0,1,0,5.99,0,5.99h-6.21s.03-3.22.03-5.65"/>
        <path id="path15450" class="cls-1" d="M118.65,25.54c-.16-2.71-1.52-4.66-2.89-5.85-1.17-1.04-2.56-1.29-3.68-1.29-.23,0-.43,0-.63.02-3.96.26-6.34,2.88-7.36,7.12h14.56ZM113.36,42.88c2.62.06,6.4-.77,8.54-2.71l.14-.1,1.36,1.54-.15.11c-3.59,2.78-7.27,3.79-10.59,3.81-4.86.05-8.89-1.94-10.65-3.23-3.71-2.83-5.11-6.76-5.63-9.57-.51-3.32.6-7.32,2.89-10.37,1.87-2.48,4.87-5.52,11.19-6.27,2.48-.27,7.09-.3,10.57,2.51,2.52,2.05,4.52,5.14,4.92,9.27l.03.17h-22.45c-.05.62-.08,1.22-.08,1.81,0,3.95,1.1,7.31,3.16,9.68,1.77,2.04,4.15,3.21,6.73,3.36"/>
        <path id="path15454" class="cls-1" d="M85.95,25.54c-.16-2.71-1.51-4.66-2.89-5.85-1.16-1.04-2.55-1.29-3.67-1.29-.23,0-.43,0-.63.02-3.96.26-6.34,2.88-7.37,7.12h14.56ZM80.65,42.88c2.62.06,6.4-.77,8.54-2.71l.14-.1,1.36,1.54-.15.11c-3.59,2.78-7.27,3.79-10.59,3.81-4.86.05-8.88-1.94-10.64-3.23-3.71-2.83-5.11-6.76-5.63-9.57-.51-3.32.6-7.32,2.9-10.37,1.86-2.48,4.86-5.52,11.18-6.27,2.49-.27,7.09-.3,10.58,2.51,2.53,2.05,4.51,5.14,4.92,9.27l.03.17h-22.45c-.06.62-.07,1.22-.07,1.81,0,3.95,1.09,7.31,3.15,9.68,1.78,2.04,4.15,3.21,6.73,3.36"/>
        <path id="path15458" class="cls-1" d="M51.08,36.85c.28-.55,10.91-20.74,10.91-20.74h3.16s-2.06,3.81-3.46,6.41l-.06.11-11.46,22.11h-2.16l-10.6-22.11c-1.52-3.02-3.17-6.51-3.17-6.51h6.92s9.65,20.18,9.92,20.74"/>
        <path id="path15462" class="cls-1" d="M21.62,0l16.56,37.26c1.27,2.97,4.13,7.47,4.13,7.47h-8.84s-7.1-16.42-7.19-16.61h-15.37c-.08.19-7.11,16.61-7.11,16.61H0s2.09-3.58,3.28-6.4L20.12,0h1.51ZM24.89,25.5c-.18-.44-6.02-13.7-6.32-14.35-.28.65-6.1,13.89-6.29,14.33l12.61.02Z"/>
        <path id="path15466" class="cls-1" d="M178.27,43.11c-5.45,0-9.86-5.49-9.86-12.26s4.42-12.26,9.86-12.26,9.87,5.49,9.87,12.26-4.41,12.26-9.87,12.26M178.27,16.09c-9.44,0-17.1,6.61-17.1,14.75s7.66,14.75,17.1,14.75,17.09-6.61,17.09-14.75-7.65-14.75-17.09-14.75"/>
        <path id="path15470" class="cls-1" d="M198.97,41.91c.42,0,.65-.23.65-.54v-.02c0-.36-.26-.55-.67-.55h-.81v1.1h.83ZM197.31,40.07h1.67c.51,0,.9.15,1.16.41.21.21.31.49.31.82v.02c0,.6-.33.99-.81,1.16l.92,1.35h-.97l-.8-1.21h-.66v1.21h-.83v-3.77ZM201.9,42.06v-.02c0-1.73-1.34-3.13-3.12-3.13s-3.14,1.42-3.14,3.15v.02c0,1.73,1.34,3.13,3.12,3.13s3.14-1.42,3.14-3.15M195.23,42.08v-.02c0-1.93,1.57-3.54,3.55-3.54s3.53,1.59,3.53,3.52v.02c0,1.92-1.57,3.54-3.55,3.54s-3.53-1.59-3.53-3.52"/>
      </g>
    </g>
  </g>
</svg>