<svg width="47" height="47" viewBox="0 0 47 47" fill="none" xmlns="http://www.w3.org/2000/svg">
<circle cx="23.5" cy="23.5" r="23.5" fill="white"/>
<g clip-path="url(#clip0_140_443)">
<path d="M36.08 17.87C35.72 17.41 35.16 17.16 34.5 17.15C32.48 17.14 30.46 17.13 28.45 17.12H26.01C22.45 17.09 18.88 17.08 15.32 17.07C15.28 17.07 15.26 17.07 15.25 17.07C15.25 17.07 15.24 17.04 15.23 17C14.99 16.07 14.74 15.14 14.48 14.21L14.37 13.81C14.06 12.62 13.27 12.01 12.04 12C11.72 12 11.41 12 11.09 12C10.5 12.01 9.91 12.02 9.32 12C8.7 12 8.24 12.24 8.02 12.78L8 13.26L8.02 13.35C8.23 13.9 8.65 14.16 9.31 14.16C9.97 14.15 10.63 14.16 11.29 14.16H12.03C12.19 14.16 12.23 14.17 12.24 14.18C12.24 14.19 12.27 14.23 12.32 14.39L15.93 27.77C15.93 27.77 15.93 27.78 15.93 27.79C15.22 27.89 14.55 28.28 14.11 28.87C13.65 29.48 13.45 30.24 13.57 30.97C13.79 32.39 14.92 33.35 16.38 33.37C16.63 33.37 16.89 33.37 17.15 33.37H17.18C16.77 34.88 17.2 36.11 18.43 36.95C18.98 37.33 19.56 37.51 20.14 37.51C20.72 37.51 21.29 37.32 21.84 36.95C23.08 36.1 23.51 34.88 23.11 33.39H27.55C27.21 34.96 27.57 36.07 28.67 36.88C29.72 37.65 31.16 37.68 32.19 36.97C33.49 36.07 33.91 34.76 33.4 33.2C33.67 33.01 33.82 32.76 33.86 32.45C33.9 32.13 33.82 31.84 33.62 31.62C33.4 31.37 33.05 31.24 32.64 31.24H16.58C16.47 31.24 16.37 31.24 16.27 31.24C15.92 31.21 15.68 30.94 15.68 30.59C15.68 30.24 15.92 29.97 16.27 29.93C16.38 29.92 16.5 29.92 16.63 29.92H31.48C31.72 29.93 31.97 29.93 32.21 29.92C33.32 29.89 34.19 29.2 34.44 28.17C35.13 25.24 35.8 22.34 36.43 19.56C36.57 18.95 36.45 18.36 36.09 17.91L36.08 17.87ZM31.35 21.22C31.43 20.58 31.52 19.93 31.63 19.28C32.43 19.28 33.23 19.28 34.06 19.28H34.28L33.55 22.43H31.2L31.35 21.23V21.22ZM33.05 24.6L32.76 25.84C32.63 26.4 32.5 26.96 32.38 27.52C32.33 27.74 32.26 27.74 32.22 27.74C31.75 27.75 31.27 27.74 30.79 27.74H30.5L30.91 24.59H33.05V24.6ZM27.18 22.44H26.39V19.27H29.45V19.39C29.41 19.6 29.39 19.8 29.36 19.99L29.24 20.89C29.17 21.39 29.11 21.9 29.03 22.45C28.41 22.45 27.79 22.45 27.18 22.45V22.44ZM28.32 27.74C27.74 27.74 27.16 27.74 26.57 27.74H26.38V24.59H28.74C28.6 25.65 28.46 26.7 28.32 27.73V27.74ZM24.2 24.6V27.75H23.62C23.18 27.75 22.74 27.75 22.27 27.75C22.17 26.96 22.06 26.17 21.96 25.37L21.86 24.6H24.21H24.2ZM18.4 22.45C17.84 22.45 17.28 22.45 16.72 22.45C16.71 22.45 16.7 22.45 16.69 22.45C16.46 21.57 16.22 20.68 15.98 19.78L15.83 19.22H17.16C17.76 19.22 18.37 19.23 18.99 19.25C19.08 19.98 19.18 20.71 19.28 21.44L19.4 22.37C19.4 22.37 19.4 22.43 19.4 22.45H18.4ZM18 24.59C18.55 24.59 19.09 24.59 19.7 24.59C19.7 24.59 19.7 24.59 19.7 24.6C19.79 25.33 19.89 26.06 19.99 26.78L20.11 27.7C20.11 27.7 20.11 27.72 20.11 27.73H19.82C19.28 27.73 18.75 27.73 18.23 27.72C18.2 27.72 18.13 27.65 18.11 27.63C17.86 26.76 17.62 25.88 17.38 24.99L17.27 24.58H18V24.59ZM24.2 19.26V22.43H21.56L21.14 19.26H24.2ZM19.14 34.33C19.14 33.8 19.58 33.36 20.11 33.36C20.37 33.36 20.61 33.46 20.8 33.65C20.99 33.84 21.09 34.09 21.09 34.34C21.09 34.59 20.99 34.84 20.8 35.03C20.61 35.22 20.37 35.32 20.1 35.32C19.84 35.32 19.59 35.22 19.41 35.03C19.23 34.85 19.13 34.6 19.13 34.33H19.14ZM30.47 35.32C30.21 35.32 29.96 35.21 29.78 35.02C29.6 34.83 29.5 34.58 29.51 34.32C29.52 33.79 29.96 33.36 30.48 33.36C30.74 33.36 30.98 33.47 31.17 33.65C31.36 33.84 31.46 34.09 31.45 34.35C31.45 34.61 31.34 34.86 31.16 35.04C30.97 35.22 30.71 35.31 30.46 35.32H30.47Z" fill="#464646"/>
</g>
<defs>
<clipPath id="clip0_140_443">
<rect width="28.47" height="25.5" fill="white" transform="translate(8 12)"/>
</clipPath>
</defs>
</svg>
