<svg width="29" height="26" viewBox="0 0 29 26" fill="none" xmlns="http://www.w3.org/2000/svg">
<g clip-path="url(#clip0_352_2043)">
<path d="M28.6103 6.12C28.2503 5.66 27.6903 5.41 27.0303 5.4C25.0103 5.39 22.9903 5.38 20.9803 5.37H18.5403C14.9803 5.34 11.4103 5.33 7.85027 5.32C7.81027 5.32 7.79027 5.32 7.78027 5.32C7.78027 5.32 7.77027 5.29 7.76027 5.25C7.52027 4.32 7.27027 3.39 7.01027 2.46L6.90027 2.06C6.59027 0.87 5.80027 0.26 4.57027 0.25C4.25027 0.25 3.94027 0.25 3.62027 0.25C3.03027 0.26 2.44027 0.27 1.85027 0.25C1.23027 0.25 0.770273 0.49 0.550273 1.03L0.530273 1.51L0.550273 1.6C0.760273 2.15 1.18027 2.41 1.84027 2.41C2.50027 2.4 3.16027 2.41 3.82027 2.41H4.56027C4.72027 2.41 4.76027 2.42 4.77027 2.43C4.77027 2.44 4.80027 2.48 4.85027 2.64L8.46027 16.02C8.46027 16.02 8.46027 16.03 8.46027 16.04C7.75027 16.14 7.08027 16.53 6.64027 17.12C6.18027 17.73 5.98027 18.49 6.10027 19.22C6.32027 20.64 7.45027 21.6 8.91027 21.62C9.16027 21.62 9.42027 21.62 9.68027 21.62H9.71027C9.30027 23.13 9.73027 24.36 10.9603 25.2C11.5103 25.58 12.0903 25.76 12.6703 25.76C13.2503 25.76 13.8203 25.57 14.3703 25.2C15.6103 24.35 16.0403 23.13 15.6403 21.64H20.0803C19.7403 23.21 20.1003 24.32 21.2003 25.13C22.2503 25.9 23.6903 25.93 24.7203 25.22C26.0203 24.32 26.4403 23.01 25.9303 21.45C26.2003 21.26 26.3503 21.01 26.3903 20.7C26.4303 20.38 26.3503 20.09 26.1503 19.87C25.9303 19.62 25.5803 19.49 25.1703 19.49H9.11027C9.00027 19.49 8.90027 19.49 8.80027 19.49C8.45027 19.46 8.21027 19.19 8.21027 18.84C8.21027 18.49 8.45027 18.22 8.80027 18.18C8.91027 18.17 9.03027 18.17 9.16027 18.17H24.0103C24.2503 18.18 24.5003 18.18 24.7403 18.17C25.8503 18.14 26.7203 17.45 26.9703 16.42C27.6603 13.49 28.3303 10.59 28.9603 7.81C29.1003 7.2 28.9803 6.61 28.6203 6.16L28.6103 6.12ZM23.8803 9.47C23.9603 8.83 24.0503 8.18 24.1603 7.53C24.9603 7.53 25.7603 7.53 26.5903 7.53H26.8103L26.0803 10.68H23.7303L23.8803 9.48V9.47ZM25.5803 12.85L25.2903 14.09C25.1603 14.65 25.0303 15.21 24.9103 15.77C24.8603 15.99 24.7903 15.99 24.7503 15.99C24.2803 16 23.8003 15.99 23.3203 15.99H23.0303L23.4403 12.84H25.5803V12.85ZM19.7103 10.69H18.9203V7.52H21.9803V7.64C21.9403 7.85 21.9203 8.05 21.8903 8.24L21.7703 9.14C21.7003 9.64 21.6403 10.15 21.5603 10.7C20.9403 10.7 20.3203 10.7 19.7103 10.7V10.69ZM20.8503 15.99C20.2703 15.99 19.6903 15.99 19.1003 15.99H18.9103V12.84H21.2703C21.1303 13.9 20.9903 14.95 20.8503 15.98V15.99ZM16.7303 12.85V16H16.1503C15.7103 16 15.2703 16 14.8003 16C14.7003 15.21 14.5903 14.42 14.4903 13.62L14.3903 12.85H16.7403H16.7303ZM10.9303 10.7C10.3703 10.7 9.81027 10.7 9.25027 10.7C9.24027 10.7 9.23027 10.7 9.22027 10.7C8.99027 9.82 8.75027 8.93 8.51027 8.03L8.36027 7.47H9.69027C10.2903 7.47 10.9003 7.48 11.5203 7.5C11.6103 8.23 11.7103 8.96 11.8103 9.69L11.9303 10.62C11.9303 10.62 11.9303 10.68 11.9303 10.7H10.9303ZM10.5303 12.84C11.0803 12.84 11.6203 12.84 12.2303 12.84C12.2303 12.84 12.2303 12.84 12.2303 12.85C12.3203 13.58 12.4203 14.31 12.5203 15.03L12.6403 15.95C12.6403 15.95 12.6403 15.97 12.6403 15.98H12.3503C11.8103 15.98 11.2803 15.98 10.7603 15.97C10.7303 15.97 10.6603 15.9 10.6403 15.88C10.3903 15.01 10.1503 14.13 9.91027 13.24L9.80027 12.83H10.5303V12.84ZM16.7303 7.51V10.68H14.0903L13.6703 7.51H16.7303ZM11.6703 22.58C11.6703 22.05 12.1103 21.61 12.6403 21.61C12.9003 21.61 13.1403 21.71 13.3303 21.9C13.5203 22.09 13.6203 22.34 13.6203 22.59C13.6203 22.84 13.5203 23.09 13.3303 23.28C13.1403 23.47 12.9003 23.57 12.6303 23.57C12.3703 23.57 12.1203 23.47 11.9403 23.28C11.7603 23.1 11.6603 22.85 11.6603 22.58H11.6703ZM23.0003 23.57C22.7403 23.57 22.4903 23.46 22.3103 23.27C22.1303 23.08 22.0303 22.83 22.0403 22.57C22.0503 22.04 22.4903 21.61 23.0103 21.61C23.2703 21.61 23.5103 21.72 23.7003 21.9C23.8903 22.09 23.9903 22.34 23.9803 22.6C23.9803 22.86 23.8703 23.11 23.6903 23.29C23.5003 23.47 23.2403 23.56 22.9903 23.57H23.0003Z" fill="#464646"/>
</g>
<defs>
<clipPath id="clip0_352_2043">
<rect width="28.47" height="25.5" fill="white" transform="translate(0.530273 0.25)"/>
</clipPath>
</defs>
</svg>
