<?xml version="1.0" encoding="UTF-8"?>
<svg id="Layer_2" data-name="Layer 2" xmlns="http://www.w3.org/2000/svg" viewBox="0 0 295.94 45.56">
  <defs>
    <style>
      .cls-1 {
        fill: #3a4495;
      }
    </style>
  </defs>
  <g id="layer">
    <g id="g83109">
      <path id="path83111" class="cls-1" d="M19.28,45.56c8.9,0,15.33-6.07,17.21-14.68l-4-.73c-1.2,6.91-6.24,12.08-13.39,12.08-10.37,0-14.74-10.32-14.74-19.23C4.36,13.23,8.96,3.9,19.22,3.9c6.78,0,11.03,4.05,12.97,10.25l3.99-.85C33.65,5.41,28.19.49,19.34.49,6.73.49,0,10.31,0,22.82s6.25,22.74,19.28,22.74"/>
    </g>
    <path id="path83113" class="cls-1" d="M40.72,45.56h3.84V0h-3.84v45.56h0Z"/>
    <g id="g83115">
      <path id="path83117" class="cls-1" d="M62.95,14.86c6.33,0,9.84,4.77,10.15,11.22h-20.29c.51-6.12,4.34-11.22,10.15-11.22M77.18,29.15v-1.66c-.25-8.87-4.91-15.7-13.9-15.7-9.52,0-14.61,7.33-14.61,17.11s5.09,16.72,14.48,16.67c6.32,0,11.61-3.33,13.66-9.32l-3.77-.64c-1.47,4.39-5.17,6.82-9.83,6.82-3.24,0-6.44-1.65-7.97-4.09-1.6-2.55-2.5-4.91-2.5-9.18"/>
    </g>
    <g id="g83119">
      <path id="path83121" class="cls-1" d="M102.5,31.28c0,5.62-4.03,11.03-9.96,11.03-3.45,0-7.71-.89-7.71-5.87,0-5.92,6.56-7.21,12.63-7.83.7-.07,3.64-.39,5.04-.56v3.24ZM107.54,44.8c-.71-1.53-1.21-3.76-1.21-7.02v-14.23c0-10.07-5.49-11.74-12.08-11.74-6.12,0-11.29,2.48-12.24,8.74l3.76.44c.83-4.53,4.09-6,8.25-6,5.94,0,8.48,1.86,8.48,8.25v1.91c-3.84.44-9.84.65-14.17,1.97-4.42,1.41-7.72,4.21-7.72,9.39,0,5.74,4.53,9.06,10.53,9.06,3.96,0,8.37-1.08,11.49-6.11,0,2.85.45,4.59.95,5.35"/>
    </g>
    <g id="g83123">
      <path id="path83125" class="cls-1" d="M134.59,15.7c-1.86-1.98-4.73-3-8.42-3-4.54,0-8.1,2.16-10.03,6.25h-.03v-.1c0-2.88-.32-4.44-.62-5.35h-4.12c.49,1.09.8,2.57.94,4.53v27.53h3.82v-17.67c0-3.32.78-6.32,2.56-8.56,1.73-2.04,4.1-3.24,7.09-3.24,2.74,0,4.8.97,6,2.42,1.66,1.98,1.93,4.79,1.93,6.83v20.23h3.88v-19.97c0-3.19-.44-7.21-3-9.89"/>
    </g>
    <g id="g83127">
      <path id="path83129" class="cls-1" d="M183.98,45.56c8.9,0,15.33-6.06,17.21-14.68l-4-.72c-1.2,6.91-6.24,12.07-13.39,12.07-10.37,0-14.74-10.3-14.74-19.23,0-9.74,4.6-19.09,14.86-19.09,6.78,0,11.03,4.07,12.97,10.25l3.99-.85c-2.54-7.89-8-12.8-16.85-12.8-12.61,0-19.34,9.83-19.34,22.32s6.25,22.74,19.28,22.74"/>
    </g>
    <path id="path83131" class="cls-1" d="M205.42,45.56h3.84V.29h-3.84v45.27Z"/>
    <g id="g83133">
      <path id="path83135" class="cls-1" d="M227.64,14.85c6.33,0,9.84,4.8,10.15,11.24h-20.29c.51-6.13,4.34-11.24,10.15-11.24M241.88,29.15v-1.66c-.25-8.87-4.91-15.7-13.9-15.7-9.52,0-14.61,7.36-14.61,17.12s5.09,16.72,14.48,16.66c6.32,0,11.61-3.33,13.66-9.31l-3.77-.65c-1.47,4.41-5.17,6.83-9.83,6.83-3.24,0-6.44-1.65-7.97-4.09-1.6-2.56-2.5-4.92-2.5-9.19"/>
    </g>
    <g id="g83137">
      <path id="path83139" class="cls-1" d="M267.19,31.26c0,5.63-4.03,11.04-9.96,11.04-3.45,0-7.71-.88-7.71-5.86,0-5.94,6.56-7.22,12.63-7.85.7-.07,3.64-.39,5.04-.56v3.23ZM272.24,44.8c-.71-1.53-1.21-3.77-1.21-7.02v-14.23c0-10.09-5.49-11.76-12.08-11.76-6.12,0-11.29,2.5-12.24,8.75l3.76.46c.83-4.54,4.09-6.02,8.25-6.02,5.94,0,8.48,1.87,8.48,8.24v1.91c-3.84.45-9.84.66-14.17,1.99-4.42,1.4-7.72,4.21-7.72,9.39,0,5.73,4.53,9.06,10.53,9.06,3.96,0,8.37-1.09,11.49-6.13,0,2.86.45,4.61.95,5.37"/>
    </g>
    <g id="g83141">
      <path id="path83143" class="cls-1" d="M280.91,19.97h-.11v-1.11c0-2.85-.31-4.44-.62-5.35h-4.12c.64,1.4.95,3.44,1.01,6.29v25.75h3.84v-17.5c0-3.7.88-5.86,2.86-8.09,1.91-2.25,4.27-3.32,6.83-3.46.65,0,1.65,0,2.24.07v-3.89c-5.23-.13-9.96,2.04-11.93,7.28"/>
    </g>
    <g id="g83145">
      <path id="path83147" class="cls-1" d="M144.8,38.31c.12,3.19,3.14,4.34,4.83,4.34,2.02.02,3.94-.74,6.02-2.8l-6.64-7.41c-2.75,1.83-4.28,3.13-4.2,5.87M147.37,24.58c.05,1.67,1.7,3.7,2.72,4.63,1.38-.98,3.52-2.6,3.46-4.76-.09-2.27-2.05-3.17-3.11-3.14-2.72.09-3.11,2.42-3.07,3.28M157.52,41.99c-3.57,3.5-7.06,3.64-8.06,3.55-6.27-.05-7.79-4.96-7.86-6.89-.13-3.47,1.03-5.18,5.8-8-1.98-2.22-3.06-3.56-3.13-5.76-.1-2.94,1.99-6.05,6.01-6.16,4.15-.14,6,2.8,6.08,5.35.12,3.59-2.7,5.45-4.59,6.79l5.77,6.34c.81-1.09,1.14-2.82,1.14-2.82l2.99.04c-.52,1.98-1.23,3.6-2.04,4.94l4.88,5.7-4.36.03-2.62-3.1"/>
    </g>
    <g id="g83149">
      <path id="path83151" class="cls-1" d="M290.35,40.75v-1.83h1.19c.66,0,1.25.15,1.25.89,0,.9-.78.93-1.57.93h-.87ZM290.35,41.3h1.11l1.47,2.34h.77l-1.58-2.34c.72-.12,1.35-.53,1.35-1.49s-.53-1.45-1.74-1.45h-2.01v5.28h.64s0-2.34,0-2.34ZM287.52,41c0-2.18,1.63-3.91,3.83-3.91s3.87,1.74,3.87,3.91-1.63,3.91-3.87,3.91-3.83-1.74-3.83-3.91M295.94,41c0-2.57-1.99-4.56-4.59-4.56s-4.55,1.99-4.55,4.56,1.99,4.56,4.55,4.56,4.59-1.99,4.59-4.56"/>
    </g>
  </g>
</svg>