<svg width="25" height="20" viewBox="0 0 25 20" fill="none" xmlns="http://www.w3.org/2000/svg">
<path d="M0.146729 1.66463C0.146729 0.746634 0.942322 0 1.92151 0H23.2251C24.2043 0 24.9999 0.746634 24.9999 1.66463C24.9999 2.58262 24.2043 3.32925 23.2251 3.32925H1.92151C0.942322 3.32925 0.146729 2.58262 0.146729 1.66463ZM0.146729 10C0.146729 9.07589 0.942322 8.33537 1.92151 8.33537H23.2251C24.2043 8.33537 24.9999 9.08201 24.9999 10C24.9999 10.918 24.2043 11.6646 23.2251 11.6646H1.92151C0.942322 11.6646 0.146729 10.918 0.146729 10ZM24.9999 18.3354C24.9999 19.2595 24.2043 20 23.2251 20H1.92151C0.942322 20 0.146729 19.2534 0.146729 18.3354C0.146729 17.4174 0.942322 16.6707 1.92151 16.6707H23.2251C24.2043 16.6707 24.9999 17.4174 24.9999 18.3354Z" fill="#464646"/>
</svg>
