<svg width="20" height="20" viewBox="0 0 20 20" fill="none" xmlns="http://www.w3.org/2000/svg">
<path d="M19.5582 17.4314C20.1452 18.0183 20.1452 18.9713 19.5582 19.5582C19.2679 19.8485 18.8766 20 18.4979 20C18.1193 20 17.728 19.8485 17.4314 19.5582L10.0032 12.13L2.56863 19.5582C1.9817 20.1452 1.02872 20.1452 0.44178 19.5582C0.145156 19.2679 0 18.8766 0 18.4979C0 18.1193 0.145156 17.728 0.44178 17.4314L7.8763 10.0032L0.44178 2.56863C-0.145156 1.9817 -0.145156 1.02872 0.44178 0.44178C0.738403 0.145156 1.11707 0 1.50836 0C1.89965 0 2.27832 0.145156 2.56863 0.44178L10.0032 7.8763L17.4314 0.44178C18.0183 -0.145156 18.9713 -0.145156 19.5582 0.44178C19.8485 0.738403 20 1.11707 20 1.50836C20 1.89965 19.8485 2.27832 19.5582 2.56863L12.13 10.0032L19.5582 17.4314Z" fill="#464646"/>
</svg>
