<svg width="60" height="60" viewBox="0 0 60 60" fill="none" xmlns="http://www.w3.org/2000/svg">
<circle cx="30" cy="30" r="30" fill="black"/>
<path d="M31.487 30.4737L43.3833 42.4125C44.2056 43.2376 44.2056 44.572 43.3833 45.3884L41.4064 47.3723C40.5842 48.1975 39.2546 48.1975 38.4411 47.3723L30 38.9186L21.5676 47.3811C20.7454 48.2063 19.4158 48.2063 18.6023 47.3811L16.6167 45.3972C15.7944 44.572 15.7944 43.2376 16.6167 42.4212L28.513 30.4824C29.3352 29.6485 30.6648 29.6485 31.487 30.4737ZM28.513 13.6189L16.6167 25.5577C15.7944 26.3829 15.7944 27.7172 16.6167 28.5336L18.5936 30.5176C19.4158 31.3427 20.7454 31.3427 21.5589 30.5176L29.9913 22.0551L38.4236 30.5176C39.2459 31.3427 40.5754 31.3427 41.3889 30.5176L43.3658 28.5336C44.1881 27.7084 44.1881 26.3741 43.3658 25.5577L31.4695 13.6189C30.6648 12.7937 29.3352 12.7937 28.513 13.6189Z" fill="white"/>
</svg>
