<svg width="47" height="47" viewBox="0 0 47 47" fill="none" xmlns="http://www.w3.org/2000/svg">
<circle cx="23.5" cy="23.5" r="23.5" fill="#FF0000"/>
<path d="M25.5995 16.1508L25.6 16.1503C27.9251 13.76 31.6216 13.4322 34.0593 15.5015C36.9188 17.9331 37.0724 22.3091 34.5062 24.9477L34.506 24.9479L24.319 35.4281C24.0535 35.701 23.6332 35.701 23.3678 35.4281L13.1812 24.9484C13.181 24.9482 13.1809 24.9481 13.1807 24.9479C10.6195 22.3093 10.7733 17.9333 13.6324 15.5017C16.0705 13.4319 19.772 13.7605 22.0913 16.1496L22.0925 16.1508L23.1297 17.2156L23.846 17.9511L24.5624 17.2156L25.5995 16.1508Z" stroke="white" stroke-width="2"/>
</svg>
