<?xml version="1.0" encoding="UTF-8"?>
<svg id="Layer_2" data-name="Layer 2" xmlns="http://www.w3.org/2000/svg" viewBox="0 0 232.83 42.62">
  <g id="layer">
    <g id="Layer_1-2" data-name="Layer 1-2">
      <g>
        <polygon points="0 1.65 10.63 1.57 10.86 33.11 20.64 33.04 20.7 41.49 .29 41.64 0 1.65"/>
        <path d="M151.64,39.77l-.28-39.22,11.49-.08.29,40.07-24.02.17-9.73-20.08.15,20.03-11.49.12-.29-39.99,20.07-.15c7.92.48,13.8,7.96,11.58,15.79-.93,3.27-3.21,5.98-6.17,7.62l8.41,15.71h0ZM129.37,19.08l4.93-.04c2.45-.02,4.28-2.62,4.04-4.95-.2-1.85-2.2-3.82-4.1-3.81l-4.89.04.02,8.76Z"/>
        <path d="M45.93,30.65c.57,4.55,9.33,4.87,8.68-1.22-.29-2.75-4.06-3.28-6.16-3.99-5.79-1.96-12.07-4.93-13.04-11.69-2.15-14.96,21.79-18.34,28.26-6.92l.72,1.41-.05-7.05,25.38-.18.03,9.3-6.95.05.3,30.69-11.88.09-.22-30.69-6.13.04c-.03.08.08.17.08.19l.02,2.44-10.56.08-.02-2.13c0-.17-.33-.86-.43-1.05-1.48-2.55-6.63-2.69-7.48.49-1.22,4.54,3.97,4.92,6.99,5.95,3.12,1.07,7.73,3.01,9.94,5.47,3.75,4.17,3.65,10.81.03,15.04-8.35,9.74-29.39,6.9-28.08-8.36l10.56-.08c.06.68-.07,1.47.02,2.13h0Z"/>
        <polygon points="187.59 20.13 187.45 .29 199.01 .2 199.3 40.2 186.18 40.29 176.97 22.53 177.1 40.36 166.39 40.43 166.1 .44 177.16 .36 187.59 20.13"/>
        <polygon points="116.12 .8 116.18 10.1 103.53 10.2 103.58 16.24 114.05 16.17 114.12 25.31 103.64 25.39 103.69 31.74 116.22 31.65 116.34 31.77 116.41 40.76 116.29 40.87 91.76 41.05 91.65 40.94 91.36 .98 116.12 .8"/>
        <polygon points="227.03 0 227.1 9.3 214.45 9.39 214.49 15.32 214.61 15.44 224.97 15.36 225.04 24.51 214.67 24.58 214.56 24.7 214.6 30.94 227.26 30.85 227.32 39.95 227.21 40.07 202.64 40.25 202.35 .18 227.03 0"/>
        <polygon points="33.22 1.4 33.59 41.4 21.95 41.48 21.73 1.49 33.22 1.4"/>
        <path d="M230.12.08c3.36-.51,3.69,4.47.47,4.55-2.87.07-3.24-4.13-.47-4.55ZM230.2.39c-.6.09-1.2.56-1.44,1.12-.79,1.86,1.35,3.57,2.95,2.37s.53-3.79-1.51-3.49h0Z"/>
        <path d="M230.73.9c.89.15.72,1.47-.18,1.51l1.25,1.19c-.97.23-1.2-.79-1.79-1.3v1.12s.12.11.09.19h-.54c.12-.86.11-1.84-.02-2.71.37.04.86-.07,1.2,0h0ZM230.83,1.97c.45-.48-.39-.97-.84-.83v1.01c.23.02.68-.01.84-.18Z"/>
      </g>
    </g>
  </g>
</svg>