<?xml version="1.0" encoding="UTF-8"?>
<svg id="Layer_2" data-name="Layer 2" xmlns="http://www.w3.org/2000/svg" viewBox="0 0 384.24 202.97">
  <defs>
    <style>
      .cls-1 {
        fill: #464646;
        fill-rule: evenodd;
      }
    </style>
  </defs>
  <g id="svg15">
    <g id="surface1">
      <path id="path2" class="cls-1" d="M26.06,85.08c2.68-1.93,2.96,2.86,3.29,4.86.41,2.55.75,4.97.95,7.56.41,5.48.23,10.96-.67,16.23-3.4,19.94-19.63,31.85-18.37,8.85.28-5.56,1.49-9.72,3.06-14.28,1.85-5.3,7.67-20.27,11.73-23.23ZM231.5,76.13c2.86-2.39,6.97,8.62,2.24,9.9-2.88.75-4.81-1.39-4.68-3.99.1-2.32,1.16-4.84,2.44-5.92ZM370.63,74.72c1.41,1.52,2.37,4.76,2.42,7.31.13,8.15-8.57,4.76-6.12-1.67.62-1.67,2.14-5.07,3.7-5.63ZM287.48,58.53c-2.65.21-5.99.46-7.9-.87-1.59-1.13-3.11-4.37-1.13-6.15,3.55-3.16,8.9,4.24,9.03,7.02ZM88.27,59.61c-4.48,2.62-11.76-3.45-9.11-8.21,2.86-5.12,8.82,4.68,9.11,8.21ZM120.78,4.87c7.64-2.98-.1,30.25-4.71,34.01-5.04,4.09-2.75-16.13-2.55-18.5.39-4.71,2.62-13.69,7.25-15.51ZM21.38,79.91c-7.69-8.64-13.04-25.03-10.52-40.03,1.8-10.65,8.54-31.36,20.76-31.46-4.35,11.83-6.51,17.78-7.25,31.41-.33,6.33-.23,12.53.18,18.81l1.78,17.47c-1.21.98-3.11,3.63-4.94,3.81h0ZM38.62,63.47c-.57.57.69.41-.82.49l-.23-1.26c-.05-3.94-1.62-10.47-2.11-14.92-1.29-11.27-1.88-20.61-.13-31.93,1.18-7.72,2.86-10.26,3.19-11.78.1-.46.13-.33.08-.82-.23-1.62,0-.49-.46-1-2.6-1.98-11.19,2.08-13.33,3.09-4.5,2.11-7.43,4.4-10.44,7.02C.72,24.27-3.6,48.06,3.11,64.66c1.85,4.6,3.96,7.64,6.82,10.7,1.88,2.01,7.15,7.05,8.23,9.31-5.45,11.78-9.85,17.29-13.69,31.62-1.72,6.48-3.86,23.23,5.15,25.31,3.6.82,7.2-.03,9.9-1.41,8.85-4.5,14.77-18.75,16.7-28.45,3.78-19.11,1-26.03,1.67-42.86,2.96-.77,2.03-1.57,6.23-4.68,1.65-1.21,4.6-3.5,7.36-3.58.33,4.76-2.98,13.48,4.42,23.82,4.24,5.97,11.34,9.42,20.86,6.53,20.79-6.33,14.05-23.54,16.75-27.22.59-.85,8.21-4.97,9.52-5.02.21,7.67.03,15.59.03,23.28,0,3.96-.39,7.95,3.09,8.95,3.73,1.08,6.1-1.47,7.36-3.91,3.68-7.13,7.23-17.78,10.88-24.34,1.34-2.39,3.11-6.2,5.51-6.38,2.32,1.49,1.41,7.87,1.36,11.16-.1,4.32-.23,8.57-.18,12.86.05,6.1-.41,13.12,7.02,10.55s19.5-30.66,25.11-32.65c1.54,5.99.59,16.7.54,23.44-.03,4.09-.95,8.36,3.22,9.03,7.31,1.21,9.98-6.53,12.68-11.4,2.06-3.7,12.37-21.17,15.02-21.17.54,2.91.54,18.21.72,22.59.21,4.09-.49,7.77,2.29,9.7,3.63,2.5,6.43-.36,7.97-2.24,3.27-4.01,6.64-9.06,9.7-13.74,1.52-2.34,3.06-4.73,4.68-7.18,1.21-1.83,3.32-5.79,5.17-6.74l5.61,8.59c-4.14,1.75-8.93,10.14-6.89,16.46,2.29,7.13,12.66,7.77,16.59,4.78,4.42-3.34,5.33-12.25,3.65-19.11-.93-3.78-3.29-5.63-.28-8.82,1.49-1.59,4.99-3.94,8.1-4.3-1.23,4.22-2.24,5.99-2.03,11.34.15,3.96.9,7.97,2.34,11.11,5.45,11.91,25.44,15.9,34.83,3.32,4.5-5.99,4.97-12.19,5.84-20.91,1.26-.72,6.97-4.22,8.26-4.27.77,7.59.54,15.28,1.11,22.95.23,3.01-.1,8.23,2.29,9.62,3.78,2.19,5.97-1.72,7.46-3.55,5.66-7.05,9.78-13.58,14.74-21.53.98-1.59,3.68-6.74,4.91-7.41,2.65,4.19-1.67,29.71,3.65,32.11,3.58,1.59,6.56-1.65,7.9-3.29,3.58-4.42,6.79-9,10.08-13.66,1.62-2.32,8.34-12.48,9.18-14.43l.59-.54.28.59c1,3.83,3.94,7,4.89,10.21-4.5,4.78-11.42,10.91-4.04,19.89,1.52,1.88,5.04,2.24,8.08,1.67,5.51-1,9.42-4.27,10.5-9.7,1.36-6.92-1.47-11.37-4.04-15.82.36-.62,8.44-9.03,4.22-10.44-2.52-.87-3.37,3.34-6.46,3.76-.67-.87-.36-1.11-.85-2.03l-3.58-5.97c-1.41-2.55-3.16-6.95-6.12-6.82-3.63,1.16-17.7,32.59-22.1,33.08-1.88-3.55-1.13-22.66-1.34-28.74-.08-2.16-.62-2.93-2.08-3.83-3.34-2.03-6.35.75-8.18,2.47-7.18,6.74-15.36,27.68-18.42,29.61-2.03-2.24.46-24.93-2.26-30.59-3.7-7.67-13.84,10.96-18.42,10.78-.87-1.11-.69-1.9-1.18-3.37-1.08-3.22-3.19-5.79-6.3-7.54-4.22-2.39-11.24-2.32-13.69,1.21-3.22,4.66-.98,10.8,2.21,13.53,3.83,3.27,8.64,4.37,14.17,3.37.49,12.35-13.38,24.18-23.33,14.71-5.43-5.17-7.02-18.16-2.65-25.73,2.01-3.45,4.4-5.17,4.78-7.07-17.96.98-24.36,10.98-27.53,12.76-4.99-2.73-6.74-14.82-10.57-14.35-4.53.54-18.63,32.23-22.07,33.37-1.72-6.28,1.9-29.4-3.58-32.67-3.34-2.01-7.07.85-8.67,2.34-5.97,5.56-11.94,18.11-16.67,25.88-.82,1.34-1.47,3.01-3.37,2.86-1.65-5.71-.75-21.46-1.11-29.04-.26-5.02-8.95-2.91-11.37.77-1.57,2.39-2.93,4.86-4.55,7.33-1.7,2.55-3.04,4.91-4.76,7.41-1.78,2.57-8.54,12.68-10.47,13.53-.18-7.67-.23-14.77,0-22.43.26-7.59-4.32-12.55-11.37-8.64-6.2,3.47-12.35,16.49-15.26,24.03-.9,2.32-1.08,3.45-1.93,4.24-.18-7.36-.54-14.51-.44-21.94.05-3.22.1-2.5,4.14-6.95,1.8-1.96,3.58-4.4,4.86-6.69,4.6-8.23,9.7-31.51,3.34-36.76-5.71-4.68-20.45,3.58-21.84,20.89-.62,7.46.13,15.02-.46,22.25-.21,2.65-.8,7.43-2.42,8.88-1.52,1.36-5.79,3.27-8.31,3.47-2.19-10.68-14.46-17.08-19.76-8.77-4.78,7.54.67,13.97,7.15,16.39,3.55,1.34,6.25.26,8.31.93,2.19,4.4-2.21,11.45-6.82,14.41-5.45,3.52-12.4,3.06-16.34-1.16-3.34-3.6-5.38-10.26-4.55-17.13,1-8.26,3.58-10.08,7.15-15.08-12.48,1.44-22.79,10.5-29.38,17.11"/>
      <path id="path4" class="cls-1" d="M129.37,163.49c-1.08,6.3-4.89,12.32-8.39,15.18-3.58,2.88-12.81,3.27-9.13-9.44,1.62-5.61,5.4-10.98,8.98-14.46,7.67-7.43,10.06.05,8.54,8.72ZM105.5,123.62l-.69,3.14c7.51-1.11,7.56-.13,5.89,5.02-2.78,8.46-6.84,24.44-9.44,33.44-1.88,6.51-4.58,15.05,1.52,18.16,5.81,2.93,15.23,1.83,20.97-.62,5.69-2.42,9.9-6.69,13.07-11.34,11.78-17.16,3.45-41.42-14.41-23.31-1.34,1.36-1.65,1.75-3.22,3.06-1.11.93-2.19,2.47-3.06,3.04,1.11-5.66,4.01-13.17,5.92-18.68l5.02-13.79c1.16-2.75.36-2.8-1.13-4.14-2.24.41-7.41,4.04-20.43,6.02"/>
      <path id="path6" class="cls-1" d="M230.84,163.83c-1,5.38-5.04,12.53-8.49,14.97-2.01,1.41-6.66,2.42-8.72-.1-1.8-2.24-.98-7.28-.1-10.06,1.96-6.12,5.69-10.7,9.18-14.23,1.83-1.85,5.74-4.37,7.46-1.18,1.26,2.37,1.16,7.87.67,10.6h0ZM206.94,123.8l-.72,2.93c4.91-.39,7.51-1.31,6.66,2.62l-4.76,16.77c-1.72,6.43-3.68,12.91-5.4,19.29-1.75,6.38-4.81,14.84,1.85,18.06,5.79,2.8,15.54,1.67,20.97-.85,5.48-2.52,9.72-6.66,12.94-11.47,10.47-15.64,4.24-34.37-7.61-28.38-3.73,1.88-7.1,5.45-10.11,8.36-.9.85-2.06,2.42-3.09,3.09.72-4.91,3.88-12.76,5.48-17.49,1-3.06,5.97-15.8,6.02-17.44l-1.93-1.83c-5.33,2.19-3.14,1.85-9.6,3.78-3.04.9-8.13,1.52-10.7,2.55"/>
      <path id="path8" class="cls-1" d="M177.4,144.38c2.16-.69,4.63-.13,5.92.95,3.5,2.91-4.04,12.79-5.53,14.95-3.63,5.17-9.08,12.97-14.07,15.92-5.56,3.32-6.95-1.08-5.69-6.33,2.03-8.52,10.75-22.82,19.37-25.49ZM185.95,141.7c-2.86-.85-5.45-3.68-13.71-.82-11.29,3.88-20.76,14.23-24.46,26.65-2.93,9.72.46,22.72,12.09,17.06,3.19-1.57,7.95-5.4,9.6-7.23l6.25-6.61c.69-.82,1.21-1.54,1.98-2.24-.75,3.7-6.41,14.9-.85,16.93,2.21.8,4.73.51,6.64-.36,3.58-1.67,5.71-4.27,8.03-7.13,3.52-4.32,6.33-6.07,4.6-9.44-4.84-.13-4.84,7.64-10.01,9-.33-6.64,10.08-30.07,10.52-37.87-2.44-.59-3.29-.59-6.05-.59-3.73-.03-2.73.57-4.63,2.65"/>
      <path id="path10" class="cls-1" d="M250.23,157.24c4.73-.59,4.84-8.46,10.24-9.11,4.94,4.86,4.6,31.72-1,41.73-1.8,3.19-4.97,6.97-8.88,7.59-2.34-2.08-4.86-3.86-8.59-4.24-4.99-.54-6.71,3.99-4.27,6.89,4.37,5.3,15,2.26,19.89-1.21,8-5.69,19.37-19.06,25.91-26.86,4.42-5.3,14.64-17.36,13.76-25.29-.44-3.81-3.91-6.07-8.18-4.4-3.91,1.52-2.52,5.99-1.62,9.65,2.42,9.78-5.17,15.9-10.52,21.71-1.16,1.26-1.93,2.03-3.29,3.22-.28-.64.8-15.13.75-17.72-.1-5.51-.64-12.61-3.91-15.64-7.38-6.87-23.82,6.53-20.27,13.69"/>
      <path id="path12" class="cls-1" d="M350.95,45.34c9.9.26,18.11-28.02-1.41-25.96-6.87.72-9.62,8.82-5.79,14.69,3.01,4.6,7.82.64,9.42,2.14,1.65,1.57-2.03,7.05-2.21,9.13"/>
    </g>
  </g>
</svg>