<svg width="26" height="26" viewBox="0 0 26 26" fill="none" xmlns="http://www.w3.org/2000/svg">
<path d="M19.0615 7.53125C19.0615 10.8608 16.3598 13.5625 13.0303 13.5625C9.70072 13.5625 6.99902 10.8608 6.99902 7.53125C6.99902 4.2017 9.70072 1.5 13.0303 1.5C16.3598 1.5 19.0615 4.2017 19.0615 7.53125ZM13.0303 17.9062C14.3702 17.9062 15.6463 17.6239 16.8023 17.125H19.2803C22.1801 17.125 24.5303 19.4751 24.5303 22.375V23.1562C24.5303 23.8979 23.9282 24.5 23.1865 24.5H2.87402C2.13236 24.5 1.53027 23.8979 1.53027 23.1562V22.375C1.53027 19.4751 3.88041 17.125 6.78027 17.125H9.25894C10.4174 17.6234 11.6891 17.9062 13.0303 17.9062Z" fill="#464646" stroke="#464646" stroke-width="2"/>
</svg>
