<svg width="26" height="26" viewBox="0 0 26 26" fill="none" xmlns="http://www.w3.org/2000/svg">
<g clip-path="url(#clip0_352_2039)">
<path d="M25.1885 22.1162L20.3203 17.248C20.1006 17.0283 19.8027 16.9062 19.4902 16.9062H18.6943C20.042 15.1826 20.8428 13.0146 20.8428 10.6562C20.8428 5.0459 16.2969 0.5 10.6865 0.5C5.07617 0.5 0.530273 5.0459 0.530273 10.6562C0.530273 16.2666 5.07617 20.8125 10.6865 20.8125C13.0449 20.8125 15.2129 20.0117 16.9365 18.6641V19.46C16.9365 19.7725 17.0586 20.0703 17.2783 20.29L22.1465 25.1582C22.6055 25.6172 23.3477 25.6172 23.8018 25.1582L25.1836 23.7764C25.6426 23.3174 25.6426 22.5752 25.1885 22.1162ZM10.6865 16.9062C7.23438 16.9062 4.43652 14.1133 4.43652 10.6562C4.43652 7.2041 7.22949 4.40625 10.6865 4.40625C14.1387 4.40625 16.9365 7.19922 16.9365 10.6562C16.9365 14.1084 14.1436 16.9062 10.6865 16.9062Z" fill="#464646"/>
</g>
<defs>
<clipPath id="clip0_352_2039">
<rect width="25" height="25" fill="white" transform="translate(0.530273 0.5)"/>
</clipPath>
</defs>
</svg>
