<svg width="59" height="59" viewBox="0 0 59 59" fill="none" xmlns="http://www.w3.org/2000/svg">
<circle cx="29.5" cy="29.5" r="29.5" fill="black"/>
<path d="M29.5 15C20.3863 15 13 21.0266 13 28.4643C13 31.675 14.3793 34.6138 16.6738 36.9248C15.8682 40.1873 13.174 43.0938 13.1418 43.1261C13 43.275 12.9613 43.4951 13.0451 43.6893C13.1289 43.8835 13.3094 44 13.5156 44C17.7889 44 20.9922 41.9415 22.5777 40.6728C24.6854 41.469 27.025 41.9286 29.5 41.9286C38.6137 41.9286 46 35.902 46 28.4643C46 21.0266 38.6137 15 29.5 15ZM21.25 30.5357C20.1092 30.5357 19.1875 29.61 19.1875 28.4643C19.1875 27.3185 20.1092 26.3929 21.25 26.3929C22.3908 26.3929 23.3125 27.3185 23.3125 28.4643C23.3125 29.61 22.3908 30.5357 21.25 30.5357ZM29.5 30.5357C28.3592 30.5357 27.4375 29.61 27.4375 28.4643C27.4375 27.3185 28.3592 26.3929 29.5 26.3929C30.6408 26.3929 31.5625 27.3185 31.5625 28.4643C31.5625 29.61 30.6408 30.5357 29.5 30.5357ZM37.75 30.5357C36.6092 30.5357 35.6875 29.61 35.6875 28.4643C35.6875 27.3185 36.6092 26.3929 37.75 26.3929C38.8908 26.3929 39.8125 27.3185 39.8125 28.4643C39.8125 29.61 38.8908 30.5357 37.75 30.5357Z" fill="white"/>
</svg>
