<svg width="258" height="33" viewBox="0 0 258 33" fill="none" xmlns="http://www.w3.org/2000/svg">
<path d="M12.024 0.860999C14.2687 0.860999 16.2543 1.46533 17.981 2.674C19.7323 3.858 21.1013 5.64633 22.088 8.039C23.0747 10.407 23.568 13.3053 23.568 16.734C23.568 20.1627 23.0747 23.061 22.088 25.429C21.1013 27.797 19.7323 29.573 17.981 30.757C16.2543 31.9657 14.2687 32.57 12.024 32.57C9.77933 32.57 7.78133 31.9657 6.03 30.757C4.30333 29.573 2.94667 27.797 1.96 25.429C0.973333 23.061 0.48 20.1627 0.48 16.734C0.48 13.3053 0.973333 10.407 1.96 8.039C2.94667 5.64633 4.30333 3.858 6.03 2.674C7.78133 1.46533 9.77933 0.860999 12.024 0.860999ZM12.024 6.744C10.47 6.744 9.212 7.58267 8.25 9.26C7.31267 10.9373 6.844 13.4287 6.844 16.734C6.844 20.0147 7.31267 22.4937 8.25 24.171C9.212 25.8483 10.47 26.687 12.024 26.687C13.578 26.687 14.8237 25.8483 15.761 24.171C16.723 22.4937 17.204 20.0147 17.204 16.734C17.204 13.4287 16.723 10.9373 15.761 9.26C14.8237 7.58267 13.578 6.744 12.024 6.744ZM49.1018 23.616C49.1018 25.392 48.5961 26.9583 47.5848 28.315C46.5734 29.6717 45.1921 30.72 43.4408 31.46C41.7141 32.2 39.7778 32.57 37.6318 32.57C35.4858 32.57 33.5371 32.2 31.7858 31.46C30.0591 30.72 28.6901 29.6717 27.6788 28.315C26.6674 26.9583 26.1618 25.392 26.1618 23.616C26.1618 22.3087 26.4701 21.1247 27.0868 20.064C27.7034 19.0033 28.4804 18.1523 29.4178 17.511C30.3798 16.845 31.3294 16.4133 32.2668 16.216C31.4528 15.9693 30.6511 15.5253 29.8618 14.884C29.0971 14.2427 28.4558 13.4533 27.9378 12.516C27.4444 11.5787 27.1978 10.5673 27.1978 9.482C27.1978 7.90333 27.6418 6.46033 28.5298 5.153C29.4178 3.84567 30.6511 2.80967 32.2298 2.045C33.8331 1.25567 35.6338 0.860999 37.6318 0.860999C39.6298 0.860999 41.4181 1.25567 42.9968 2.045C44.5754 2.80967 45.7964 3.858 46.6598 5.19C47.5478 6.49733 47.9918 7.928 47.9918 9.482C47.9918 10.5673 47.7451 11.5787 47.2518 12.516C46.7584 13.4533 46.1171 14.2427 45.3278 14.884C44.5631 15.5253 43.7861 15.9693 42.9968 16.216C43.9588 16.4133 44.9084 16.845 45.8458 17.511C46.7831 18.1523 47.5601 19.0033 48.1768 20.064C48.7934 21.1247 49.1018 22.3087 49.1018 23.616ZM41.7018 9.741C41.7018 8.779 41.3194 7.97733 40.5548 7.336C39.7901 6.67 38.8158 6.337 37.6318 6.337C36.4478 6.337 35.4734 6.64533 34.7088 7.262C33.9441 7.854 33.5618 8.631 33.5618 9.593C33.5618 10.629 33.9564 11.4923 34.7458 12.183C35.5351 12.849 36.4971 13.182 37.6318 13.182C38.8158 13.182 39.7901 12.8613 40.5548 12.22C41.3194 11.5787 41.7018 10.7523 41.7018 9.741ZM42.6268 23.209C42.6268 22.0743 42.1458 21.137 41.1838 20.397C40.2464 19.657 39.0624 19.287 37.6318 19.287C36.2011 19.287 35.0048 19.657 34.0428 20.397C33.1054 21.137 32.6368 22.0743 32.6368 23.209C32.6368 24.319 33.0931 25.2317 34.0058 25.947C34.9431 26.6623 36.1518 27.02 37.6318 27.02C39.1118 27.02 40.3081 26.6623 41.2208 25.947C42.1581 25.2317 42.6268 24.319 42.6268 23.209ZM63.2242 0.860999C65.4689 0.860999 67.4545 1.46533 69.1812 2.674C70.9325 3.858 72.3015 5.64633 73.2882 8.039C74.2749 10.407 74.7682 13.3053 74.7682 16.734C74.7682 20.1627 74.2749 23.061 73.2882 25.429C72.3015 27.797 70.9325 29.573 69.1812 30.757C67.4545 31.9657 65.4689 32.57 63.2242 32.57C60.9795 32.57 58.9815 31.9657 57.2302 30.757C55.5035 29.573 54.1469 27.797 53.1602 25.429C52.1735 23.061 51.6802 20.1627 51.6802 16.734C51.6802 13.3053 52.1735 10.407 53.1602 8.039C54.1469 5.64633 55.5035 3.858 57.2302 2.674C58.9815 1.46533 60.9795 0.860999 63.2242 0.860999ZM63.2242 6.744C61.6702 6.744 60.4122 7.58267 59.4502 9.26C58.5129 10.9373 58.0442 13.4287 58.0442 16.734C58.0442 20.0147 58.5129 22.4937 59.4502 24.171C60.4122 25.8483 61.6702 26.687 63.2242 26.687C64.7782 26.687 66.0239 25.8483 66.9612 24.171C67.9232 22.4937 68.4042 20.0147 68.4042 16.734C68.4042 13.4287 67.9232 10.9373 66.9612 9.26C66.0239 7.58267 64.7782 6.744 63.2242 6.744ZM99.6461 0.860999C101.891 0.860999 103.876 1.46533 105.603 2.674C107.354 3.858 108.723 5.64633 109.71 8.039C110.697 10.407 111.19 13.3053 111.19 16.734C111.19 20.1627 110.697 23.061 109.71 25.429C108.723 27.797 107.354 29.573 105.603 30.757C103.876 31.9657 101.891 32.57 99.6461 32.57C97.4014 32.57 95.4034 31.9657 93.6521 30.757C91.9254 29.573 90.5687 27.797 89.5821 25.429C88.5954 23.061 88.1021 20.1627 88.1021 16.734C88.1021 13.3053 88.5954 10.407 89.5821 8.039C90.5687 5.64633 91.9254 3.858 93.6521 2.674C95.4034 1.46533 97.4014 0.860999 99.6461 0.860999ZM99.6461 6.744C98.0921 6.744 96.8341 7.58267 95.8721 9.26C94.9347 10.9373 94.4661 13.4287 94.4661 16.734C94.4661 20.0147 94.9347 22.4937 95.8721 24.171C96.8341 25.8483 98.0921 26.687 99.6461 26.687C101.2 26.687 102.446 25.8483 103.383 24.171C104.345 22.4937 104.826 20.0147 104.826 16.734C104.826 13.4287 104.345 10.9373 103.383 9.26C102.446 7.58267 101.2 6.744 99.6461 6.744ZM124.588 0.860999C126.808 0.860999 128.719 1.268 130.323 2.082C131.951 2.896 133.196 4.01833 134.06 5.449C134.923 6.87967 135.355 8.50767 135.355 10.333C135.355 11.4183 135.145 12.479 134.726 13.515C134.331 14.5263 133.64 15.6857 132.654 16.993C131.692 18.2757 130.323 19.8297 128.547 21.655L124.218 26.132H135.947V31.83H114.376V27.982L124.255 17.807C125.957 16.0557 127.128 14.625 127.77 13.515C128.411 12.3803 128.732 11.3443 128.732 10.407C128.732 9.24767 128.386 8.34733 127.696 7.706C127.03 7.04 125.994 6.707 124.588 6.707C123.28 6.707 122.244 7.151 121.48 8.039C120.74 8.927 120.37 9.98767 120.37 11.221H113.747C113.747 9.27233 114.203 7.50867 115.116 5.93C116.053 4.35133 117.336 3.118 118.964 2.23C120.616 1.31733 122.491 0.860999 124.588 0.860999ZM149.415 0.860999C151.487 0.860999 153.324 1.24333 154.928 2.008C156.531 2.77266 157.777 3.84567 158.665 5.227C159.553 6.58367 159.997 8.15 159.997 9.926C159.997 11.036 159.75 12.0597 159.257 12.997C158.788 13.9343 158.159 14.699 157.37 15.291C156.605 15.883 155.791 16.253 154.928 16.401C155.89 16.549 156.815 16.919 157.703 17.511C158.615 18.103 159.355 18.88 159.923 19.842C160.515 20.804 160.811 21.9017 160.811 23.135C160.811 25.0343 160.317 26.6993 159.331 28.13C158.344 29.536 157 30.6213 155.298 31.386C153.62 32.1753 151.733 32.57 149.637 32.57C146.356 32.57 143.729 31.719 141.756 30.017C139.782 28.315 138.672 25.9963 138.426 23.061H145.049C145.172 24.2943 145.616 25.244 146.381 25.91C147.17 26.576 148.255 26.909 149.637 26.909C151.018 26.909 152.128 26.5637 152.967 25.873C153.83 25.1823 154.262 24.282 154.262 23.172C154.262 21.9387 153.781 20.989 152.819 20.323C151.881 19.657 150.611 19.324 149.008 19.324H146.011V13.848H149.008C150.364 13.848 151.425 13.515 152.19 12.849C152.979 12.1583 153.374 11.2333 153.374 10.074C153.374 8.964 153.016 8.08833 152.301 7.447C151.61 6.80567 150.636 6.485 149.378 6.485C148.144 6.485 147.195 6.90433 146.529 7.743C145.863 8.58167 145.53 9.58067 145.53 10.74H138.907C138.907 8.84067 139.351 7.151 140.239 5.671C141.127 4.16633 142.372 2.99467 143.976 2.156C145.579 1.29267 147.392 0.860999 149.415 0.860999ZM185.753 31.83H179.056V7.521H173.728V1.675H185.753V31.83ZM204.609 25.762H191.067V20.212L202.722 1.675H210.973V20.212H214.932V25.762H210.973V31.83H204.609V25.762ZM204.609 20.212V8.594L197.505 20.212H204.609ZM228.426 31.83H221.729V7.521H216.401V1.675H228.426V31.83ZM247.282 25.762H233.74V20.212L245.395 1.675H253.646V20.212H257.605V25.762H253.646V31.83H247.282V25.762ZM247.282 20.212V8.594L240.178 20.212H247.282Z" fill="#7A7A7A"/>
</svg>
