<?xml version="1.0" encoding="UTF-8"?>
<svg id="Layer_2" data-name="Layer 2" xmlns="http://www.w3.org/2000/svg" viewBox="0 0 236.01 53.54">
  <defs>
    <style>
      .cls-1 {
        fill: #d72734;
      }
    </style>
  </defs>
  <g id="layer">
    <path class="cls-1" d="M50.47,6.25c-.28.81-1.21,1.45-2.1,1.45h-12.79c-.89,0-1.82.65-2.1,1.45l-14.24,40.87c-.28.81-1.21,1.45-2.1,1.45l-12.79,2.06c-.89,0-1.37-.65-1.09-1.45L18.16,9.16c.28-.81-.2-1.45-1.09-1.45H1.17c-.89,0-1.37-.65-1.09-1.45L1.78,1.45c.28-.81,1.21-1.45,2.1-1.45h47.12c.89,0,1.37.65,1.13,1.45l-1.65,4.8M92.43,41.11h-10.85c-.89,0-1.37-.65-1.09-1.45l9.64-27.6c.28-.81-.2-1.45-1.09-1.45h-18.68c-.89,0-2.1.48-2.7,1.09l-12.14,11.9c-.61.61-1.33.44-1.61-.36l-3.91-11.22c-.28-.81-1.21-1.45-2.1-1.45h-10.09c-.89,0-1.37.65-1.09,1.45l6.33,18.16c.28.81.28,2.1,0,2.9l-4.72,13.52c-.28.81.2,1.45,1.09,1.45h10.09c.89,0,1.82-.65,2.1-1.45l4.72-13.48c.28-.81,1.01-1.94,1.61-2.54l16.7-16.46c.61-.61,1.37-1.41,1.73-1.78.32-.36.48-.36.36,0-.16.36-.48,1.33-.77,2.14l-11.26,32.16c-.28.81.2,1.45,1.09,1.45h23.97c.89,0,1.82-.65,2.14-1.45l1.53-4.07c.32-.81-.16-1.45-1.01-1.45M124.83,25.1h-7.87c-.89,0-1.37-.65-1.09-1.45l1.82-5.08c.28-.81,1.21-1.45,2.1-1.45h12.22c.85,0,1.82-.65,2.14-1.45l1.37-3.59c.32-.81-.16-1.45-1.05-1.45h-25.66c-.89,0-1.82.65-2.1,1.45l-12.06,34.54c-.28.81.2,1.45,1.09,1.45h25.66c.89,0,1.82-.65,2.1-1.45l1.37-4.03c.28-.81-.2-1.45-1.09-1.45h-12.35c-.89,0-1.37-.65-1.09-1.45l2.06-6.01c.28-.81,1.21-1.45,2.1-1.45h7.83c.89,0,1.82-.65,2.1-1.45l1.49-4.24c.28-.77-.2-1.41-1.09-1.41M171.59,10.65h-6.17c-.85,0-1.82.65-2.1,1.45l-6.25,17.87c-.28.81-.56,1.69-.65,1.94-.08.28-.2.28-.28,0s-.32-1.17-.56-1.98l-5-17.83c-.24-.81-1.13-1.49-2.02-1.49h-8.11c-.89,0-1.82.65-2.1,1.45l-12.06,34.54c-.28.81.2,1.45,1.09,1.45h6.17c.89,0,1.82-.65,2.1-1.45l6.25-17.87c.28-.81.56-1.69.69-2.02.08-.32.2-.32.28,0,.08.28.32,1.21.52,2.02l4.92,17.83c.24.81,1.13,1.45,2.02,1.45h8.19c.89,0,1.82-.65,2.1-1.45l12.06-34.54c.24-.73-.24-1.37-1.09-1.37M197.49,29.29c2.42-8.63.08-12.47-4.07-12.47s-8.63,3.83-11.05,12.47c-2.42,8.63-.08,12.47,4.07,12.47,4.2,0,8.67-3.83,11.05-12.47M195.4,10.01c11.26,0,18.56,6.9,15.05,19.29-3.67,13.07-14.48,19.29-25.94,19.29s-18.56-6.9-15.05-19.29c3.67-13.11,14.48-19.29,25.94-19.29M234.85,41.11h-10.53c-.89,0-1.37-.65-1.09-1.45l9.64-27.6c.28-.81-.2-1.45-1.09-1.45h-10.09c-.89,0-1.82.65-2.1,1.45l-.81,2.38-11.26,32.16c-.28.81.2,1.45,1.09,1.45h23.64c.89,0,1.86-.65,2.14-1.45l1.53-4.07c.24-.77-.24-1.41-1.09-1.41"/>
  </g>
</svg>