<svg width="77" height="72" viewBox="0 0 77 72" fill="none" xmlns="http://www.w3.org/2000/svg">
<path d="M72.8132 1.3636C72.0666 -0.389342 69.9335 -0.459459 69.0402 1.19531C64.9072 8.75399 57.5079 13.4659 49.0552 13.4659H38.3895C24.2573 13.4659 12.7916 25.5261 12.7916 40.391C12.7916 41.3727 12.8983 42.3122 12.9916 43.2658C21.4976 36.8571 33.7765 31.416 51.1884 31.416C52.3616 31.416 53.3215 32.4257 53.3215 33.6597C53.3215 34.8938 52.3616 35.9035 51.1884 35.9035C17.6712 35.9035 3.45908 57.5137 0.312679 65.6333C-0.567247 67.9192 0.472665 70.5275 2.64582 71.4671C4.8323 72.4207 7.31209 71.3129 8.21868 69.041C8.41866 68.5362 11.0051 62.3238 17.8045 56.3358C22.1242 62.4921 30.3368 68.3679 41.1226 67.1619C62.0541 65.5632 76.7862 45.8181 76.7862 21.6416C76.7862 14.6018 75.3464 7.30956 72.8132 1.3636Z" fill="black"/>
</svg>
