<svg width="85" height="72" viewBox="0 0 85 72" fill="none" xmlns="http://www.w3.org/2000/svg">
<path d="M69.8085 62.8337H14.8079C13.6444 62.8337 12.6925 63.8436 12.6925 65.0778V69.5659C12.6925 70.8002 13.6444 71.81 14.8079 71.81H69.8085C70.972 71.81 71.924 70.8002 71.924 69.5659V65.0778C71.924 63.8436 70.972 62.8337 69.8085 62.8337ZM78.2702 17.9525C74.7665 17.9525 71.924 20.968 71.924 24.6847C71.924 25.6805 72.1355 26.6062 72.5057 27.4617L62.9335 33.5487C60.8974 34.8391 58.2663 34.1098 57.0896 31.9218L46.3143 11.9216C47.7289 10.6873 48.6544 8.836 48.6544 6.73219C48.6544 3.01546 45.8119 0 42.3082 0C38.8046 0 35.962 3.01546 35.962 6.73219C35.962 8.836 36.8875 10.6873 38.3022 11.9216L27.5268 31.9218C26.3501 34.1098 23.7058 34.8391 21.683 33.5487L12.1239 27.4617C12.4809 26.6202 12.7057 25.6805 12.7057 24.6847C12.7057 20.968 9.8631 17.9525 6.35945 17.9525C2.8558 17.9525 0 20.968 0 24.6847C0 28.4014 2.84258 31.4169 6.34623 31.4169C6.68999 31.4169 7.03374 31.3608 7.36427 31.3047L16.9233 58.3456H67.6931L77.2521 31.3047C77.5827 31.3608 77.9264 31.4169 78.2702 31.4169C81.7738 31.4169 84.6164 28.4014 84.6164 24.6847C84.6164 20.968 81.7738 17.9525 78.2702 17.9525Z" fill="black"/>
</svg>
