<svg width="75" height="72" viewBox="0 0 75 72" fill="none" xmlns="http://www.w3.org/2000/svg">
<path d="M74.7475 35.9037C74.7475 55.7328 58.0147 71.8074 37.3737 71.8074C16.7327 71.8074 0 55.7328 0 35.9037C0 16.0746 16.7327 0 37.3737 0C58.0147 0 74.7475 16.0746 74.7475 35.9037ZM33.0507 54.9144L60.7796 28.2762C61.7212 27.3716 61.7212 25.905 60.7796 25.0004L57.3697 21.7246C56.4282 20.8199 54.9014 20.8199 53.9597 21.7246L31.3457 43.449L20.7878 33.3063C19.8462 32.4018 18.3195 32.4018 17.3777 33.3063L13.9678 36.5821C13.0263 37.4867 13.0263 38.9533 13.9678 39.8579L29.6407 54.9143C30.5824 55.819 32.109 55.819 33.0507 54.9144Z" fill="black"/>
</svg>
