<svg width="74" height="72" viewBox="0 0 74 72" fill="none" xmlns="http://www.w3.org/2000/svg">
<path d="M50.2036 22.0055C48.0403 9.07727 42.9379 0 37 0C31.0621 0 25.9597 9.07727 23.7964 22.0055H50.2036ZM22.6774 35.9037C22.6774 39.1177 22.8565 42.2013 23.1698 45.1692H50.8153C51.1286 42.2013 51.3077 39.1177 51.3077 35.9037C51.3077 32.6897 51.1286 29.6061 50.8153 26.6382H23.1698C22.8565 29.6061 22.6774 32.6897 22.6774 35.9037ZM71.1206 22.0055C66.8536 12.1754 58.2153 4.57483 47.548 1.50564C51.1883 6.39897 53.6948 13.7679 55.0077 22.0055H71.1206ZM26.4371 1.50564C15.7847 4.57483 7.13145 12.1754 2.87944 22.0055H18.9923C20.2903 13.7679 22.7968 6.39897 26.4371 1.50564ZM72.7169 26.6382H55.6044C55.9177 29.6785 56.0968 32.7911 56.0968 35.9037C56.0968 39.0163 55.9177 42.1289 55.6044 45.1692H72.702C73.5226 42.2013 73.9851 39.1177 73.9851 35.9037C73.9851 32.6897 73.5226 29.6061 72.7169 26.6382ZM17.9032 35.9037C17.9032 32.7911 18.0823 29.6785 18.3956 26.6382H1.28306C0.477419 29.6061 0 32.6897 0 35.9037C0 39.1177 0.477419 42.2013 1.28306 45.1692H18.3806C18.0823 42.1289 17.9032 39.0163 17.9032 35.9037ZM23.7964 49.8019C25.9597 62.7301 31.0621 71.8074 37 71.8074C42.9379 71.8074 48.0403 62.7301 50.2036 49.8019H23.7964ZM47.5629 70.3018C58.2153 67.2326 66.8685 59.632 71.1355 49.8019H55.0226C53.7097 58.0395 51.2032 65.4084 47.5629 70.3018ZM2.87944 49.8019C7.14637 59.632 15.7847 67.2326 26.452 70.3018C22.8117 65.4084 20.3052 58.0395 18.9923 49.8019H2.87944Z" fill="black"/>
</svg>
