<svg width="71" height="72" viewBox="0 0 71 72" fill="none" xmlns="http://www.w3.org/2000/svg">
<path d="M35.4447 0C15.8644 0 0 16.0704 0 35.905C0 55.7396 15.8644 71.81 35.4447 71.81C55.025 71.81 70.8894 55.7396 70.8894 35.905C70.8894 16.0704 55.025 0 35.4447 0ZM46.8784 24.3227C49.4082 24.3227 51.452 26.3931 51.452 28.9556C51.452 31.5182 49.4082 33.5885 46.8784 33.5885C44.3487 33.5885 42.3049 31.5182 42.3049 28.9556C42.3049 26.3931 44.3487 24.3227 46.8784 24.3227ZM24.0109 24.3227C26.5406 24.3227 28.5844 26.3931 28.5844 28.9556C28.5844 31.5182 26.5406 33.5885 24.0109 33.5885C21.4812 33.5885 19.4374 31.5182 19.4374 28.9556C19.4374 26.3931 21.4812 24.3227 24.0109 24.3227ZM51.8521 48.964C47.7789 53.9154 41.8047 56.7531 35.4447 56.7531C29.0846 56.7531 23.1105 53.9154 19.0372 48.964C17.0935 46.6041 20.6094 43.6506 22.5531 45.996C25.7546 49.8906 30.4424 52.1057 35.4447 52.1057C40.447 52.1057 45.1348 49.8761 48.3363 45.996C50.2514 43.6506 53.7816 46.6041 51.8521 48.964Z" fill="black"/>
</svg>
