<svg width="51" height="72" viewBox="0 0 51 72" fill="none" xmlns="http://www.w3.org/2000/svg">
<path d="M13.8834 63.7208C13.8848 64.603 14.1536 65.4669 14.658 66.2018L17.128 69.8047C17.55 70.4206 18.1223 70.9257 18.794 71.2751C19.4658 71.6245 20.2161 71.8074 20.9783 71.8074H29.8971C30.6593 71.8074 31.4096 71.6245 32.0813 71.2751C32.7531 70.9257 33.3254 70.4206 33.7473 69.8047L36.2173 66.2018C36.7215 65.4668 36.991 64.6038 36.992 63.7208L36.9978 58.3424H13.8762L13.8834 63.7208ZM0 24.6834C0 30.9061 2.37749 36.5832 6.29565 40.9211C8.68325 43.5647 12.4179 49.0876 13.8415 53.7465C13.8472 53.783 13.8516 53.8195 13.8574 53.8559H37.0166C37.0223 53.8195 37.0267 53.7844 37.0325 53.7465C38.4561 49.0876 42.1907 43.5647 44.5783 40.9211C48.4964 36.5832 50.8739 30.9061 50.8739 24.6834C50.8739 11.0248 39.4432 -0.0419542 25.3575 0.000119571C10.6142 0.0435958 0 11.6363 0 24.6834ZM25.437 13.4637C19.0618 13.4637 13.8747 18.4971 13.8747 24.6834C13.8747 25.9232 12.8399 26.9273 11.5623 26.9273C10.2846 26.9273 9.2498 25.9232 9.2498 24.6834C9.2498 16.0218 16.5109 8.97585 25.437 8.97585C26.7146 8.97585 27.7494 9.98001 27.7494 11.2198C27.7494 12.4596 26.7146 13.4637 25.437 13.4637Z" fill="black"/>
</svg>
