<svg width="93" height="72" viewBox="0 0 93 72" fill="none" xmlns="http://www.w3.org/2000/svg">
<path d="M37 47.1236H36.9971C36.9971 44.8544 37.1908 45.8992 24.7047 21.667C22.1537 16.7177 14.8491 16.7078 12.2938 21.667C-0.297735 46.1068 0.00289063 44.9259 0.00289063 47.1236H0C0 53.3198 8.28309 58.3435 18.5 58.3435C28.7169 58.3435 37 53.3198 37 47.1236ZM18.5 24.6838L28.9062 44.8796H8.09375L18.5 24.6838ZM92.4971 47.1236C92.4971 44.8544 92.6908 45.8992 80.2047 21.667C77.6537 16.7177 70.3491 16.7078 67.7938 21.667C55.2023 46.1068 55.5029 44.9259 55.5029 47.1236H55.5C55.5 53.3198 63.7831 58.3435 74 58.3435C84.2169 58.3435 92.5 53.3198 92.5 47.1236H92.4971ZM63.5938 44.8796L74 24.6838L84.4062 44.8796H63.5938ZM76.3125 62.8315H50.875V21.4931C54.2729 20.05 56.8239 17.0781 57.5798 13.4639H76.3125C77.5902 13.4639 78.625 12.4597 78.625 11.2199V6.73194C78.625 5.49214 77.5902 4.48796 76.3125 4.48796H55.448C53.3378 1.77836 50.0208 0 46.25 0C42.4792 0 39.1622 1.77836 37.052 4.48796H16.1875C14.9098 4.48796 13.875 5.49214 13.875 6.73194V11.2199C13.875 12.4597 14.9098 13.4639 16.1875 13.4639H34.9202C35.6761 17.0767 38.2256 20.05 41.625 21.4931V62.8315H16.1875C14.9098 62.8315 13.875 63.8357 13.875 65.0755V69.5634C13.875 70.8032 14.9098 71.8074 16.1875 71.8074H76.3125C77.5902 71.8074 78.625 70.8032 78.625 69.5634V65.0755C78.625 63.8357 77.5902 62.8315 76.3125 62.8315Z" fill="black"/>
</svg>
