<svg width="120" height="72" viewBox="0 0 120 72" fill="none" xmlns="http://www.w3.org/2000/svg">
<path d="M81.2617 0H65.2038C63.7083 0 62.2689 0.560812 61.1659 1.57027L42.79 18.3946C42.7713 18.4133 42.7526 18.4507 42.7339 18.4694C39.6307 21.3856 39.6868 26.0404 42.3413 28.9379C44.7154 31.5363 49.7067 32.228 52.8285 29.4426C52.8472 29.4239 52.8846 29.4239 52.9033 29.4053L67.8396 15.7214C69.0547 14.6185 70.9614 14.6933 72.0644 15.9084C73.186 17.1235 73.0925 19.0115 71.8774 20.1332L66.9984 24.601L94.2165 46.697C94.7586 47.1456 95.2446 47.6316 95.6933 48.1364V11.964L85.4865 1.75721C84.3835 0.635587 82.8507 0 81.2617 0ZM101.694 12.0014V53.8567C101.694 57.1655 104.367 59.8387 107.676 59.8387H119.64V12.0014H101.694ZM110.667 53.8567C109.022 53.8567 107.676 52.5107 107.676 50.8657C107.676 49.2206 109.022 47.8747 110.667 47.8747C112.312 47.8747 113.658 49.2206 113.658 50.8657C113.658 52.5107 112.312 53.8567 110.667 53.8567ZM0 59.82H11.964C15.2728 59.82 17.946 57.1468 17.946 53.838V12.0014H0V59.82ZM8.97299 47.8747C10.618 47.8747 11.964 49.2206 11.964 50.8657C11.964 52.5107 10.618 53.8567 8.97299 53.8567C7.32795 53.8567 5.982 52.5107 5.982 50.8657C5.982 49.2019 7.32795 47.8747 8.97299 47.8747ZM90.459 51.3517L62.5493 28.6949L56.9411 33.8357C51.3891 38.9017 42.8834 38.4156 37.9296 33.0131C32.901 27.5172 33.2936 19.0115 38.7521 14.0016L54.0436 0H38.3783C36.7893 0 35.2751 0.635587 34.1535 1.75721L23.928 11.964V53.8193H27.3489L44.2668 69.1294C49.3889 73.2981 56.9224 72.513 61.0911 67.3909L61.1285 67.3535L64.4747 70.2511C67.447 72.6813 71.84 72.2139 74.2515 69.2416L80.1214 62.0258L81.1308 62.8484C83.6919 64.9234 87.468 64.5495 89.543 61.9697L91.3189 59.7826C93.4126 57.2028 93.0201 53.4454 90.459 51.3517Z" fill="black"/>
</svg>
